<svg width="360" height="450" viewBox="0 0 360 450" fill="none" xmlns="http://www.w3.org/2000/svg">
<g clip-path="url(#clip0_3_2)">
<rect width="360" height="450" fill=""/>
<path d="M90 0C90 5.90948 88.836 11.7611 86.5746 17.2208C84.3131 22.6804 80.9984 27.6412 76.8198 31.8198C72.6412 35.9984 67.6804 39.3131 62.2208 41.5746C56.7611 43.836 50.9095 45 45 45C39.0905 45 33.2389 43.836 27.7792 41.5746C22.3196 39.3131 17.3588 35.9984 13.1802 31.8198C9.00156 27.6412 5.68688 22.6804 3.42542 17.2208C1.16396 11.7611 -5.16623e-07 5.90948 0 -3.93403e-06L45 0H90Z" fill="#C66128"/>
<path d="M90 180C90 185.909 88.836 191.761 86.5746 197.221C84.3131 202.68 80.9984 207.641 76.8198 211.82C72.6412 215.998 67.6804 219.313 62.2208 221.575C56.7611 223.836 50.9095 225 45 225C39.0905 225 33.2389 223.836 27.7792 221.575C22.3196 219.313 17.3588 215.998 13.1802 211.82C9.00156 207.641 5.68688 202.68 3.42542 197.221C1.16396 191.761 -5.16623e-07 185.909 0 180L45 180H90Z" fill="#C66128"/>
<path d="M270 90C270 95.9095 268.836 101.761 266.575 107.221C264.313 112.68 260.998 117.641 256.82 121.82C252.641 125.998 247.68 129.313 242.221 131.575C236.761 133.836 230.909 135 225 135C219.091 135 213.239 133.836 207.779 131.575C202.32 129.313 197.359 125.998 193.18 121.82C189.002 117.641 185.687 112.68 183.425 107.221C181.164 101.761 180 95.9095 180 90L225 90H270Z" fill="#916E2B"/>
<path d="M360 180C360 185.909 358.836 191.761 356.575 197.221C354.313 202.68 350.998 207.641 346.82 211.82C342.641 215.998 337.68 219.313 332.221 221.575C326.761 223.836 320.909 225 315 225C309.091 225 303.239 223.836 297.779 221.575C292.32 219.313 287.359 215.998 283.18 211.82C279.002 207.641 275.687 202.68 273.425 197.221C271.164 191.761 270 185.909 270 180L315 180H360Z" fill="#496D6C"/>
<path d="M270 360C270 365.909 268.836 371.761 266.575 377.221C264.313 382.68 260.998 387.641 256.82 391.82C252.641 395.998 247.68 399.313 242.221 401.575C236.761 403.836 230.909 405 225 405C219.091 405 213.239 403.836 207.779 401.575C202.32 399.313 197.359 395.998 193.18 391.82C189.002 387.641 185.687 382.68 183.425 377.221C181.164 371.761 180 365.909 180 360L225 360H270Z" fill="#466C6A"/>
<path d="M360 360C360 365.909 358.836 371.761 356.575 377.221C354.313 382.68 350.998 387.641 346.82 391.82C342.641 395.998 337.68 399.313 332.221 401.575C326.761 403.836 320.909 405 315 405C309.091 405 303.239 403.836 297.779 401.575C292.32 399.313 287.359 395.998 283.18 391.82C279.002 387.641 275.687 382.68 273.425 377.221C271.164 371.761 270 365.909 270 360L315 360H360Z" fill="#384131"/>
<path d="M270 45C270 39.0905 271.164 33.2389 273.425 27.7792C275.687 22.3196 279.002 17.3588 283.18 13.1802C287.359 9.00156 292.32 5.68688 297.779 3.42542C303.239 1.16396 309.091 -7.74935e-07 315 0C320.909 7.74936e-07 326.761 1.16396 332.221 3.42542C337.68 5.68689 342.641 9.00156 346.82 13.1802C350.998 17.3588 354.313 22.3196 356.575 27.7793C358.836 33.2389 360 39.0905 360 45L315 45L270 45Z" fill="#ECEEE9"/>
<path d="M135 90C140.909 90 146.761 88.836 152.221 86.5746C157.68 84.3131 162.641 80.9984 166.82 76.8198C170.998 72.6412 174.313 67.6804 176.575 62.2208C178.836 56.7611 180 50.9095 180 45H135L135 90Z" fill="#384131"/>
<path d="M360 450C360 444.091 358.836 438.239 356.575 432.779C354.313 427.32 350.998 422.359 346.82 418.18C342.641 414.002 337.68 410.687 332.221 408.425C326.761 406.164 320.909 405 315 405L315 450H360Z" fill="#605E57"/>
<path d="M180 270C168.065 270 156.619 274.741 148.18 283.18C139.741 291.619 135 303.065 135 315L180 315L180 270Z" fill="#F59F48"/>
<path d="M225 135C213.065 135 201.619 139.741 193.18 148.18C184.741 156.619 180 168.065 180 180L184.339 180C184.339 169.216 188.623 158.874 196.248 151.248C203.874 143.623 214.216 139.339 225 139.339L225 135Z" fill="#955726"/>
<path d="M225 143C215.187 143 205.776 146.898 198.837 153.837C191.898 160.776 188 170.187 188 180L191.885 180C191.885 171.217 195.374 162.794 201.584 156.584C207.794 150.374 216.217 146.885 225 146.885L225 143Z" fill="#955726"/>
<path d="M225 150C217.044 150 209.413 153.161 203.787 158.787C198.161 164.413 195 172.044 195 180L198.63 180C198.63 173.006 201.408 166.299 206.354 161.354C211.299 156.408 218.006 153.63 225 153.63L225 150Z" fill="#955726"/>
<path d="M225 157C218.9 157 213.05 159.423 208.737 163.737C204.423 168.05 202 173.9 202 180L205.703 180C205.703 174.882 207.736 169.974 211.355 166.355C214.974 162.736 219.882 160.703 225 160.703L225 157Z" fill="#955726"/>
<path d="M225 164C220.757 164 216.687 165.686 213.686 168.686C210.686 171.687 209 175.757 209 180L212.424 180C212.424 176.665 213.749 173.466 216.107 171.107C218.466 168.749 221.665 167.424 225 167.424L225 164Z" fill="#955726"/>
<path d="M225 170C222.348 170 219.804 171.054 217.929 172.929C216.054 174.804 215 177.348 215 180L218.22 180C218.22 178.202 218.934 176.477 220.206 175.206C221.477 173.934 223.202 173.22 225 173.22L225 170Z" fill="#955726"/>
<path d="M135 45C140.909 45 146.761 43.836 152.221 41.5746C157.68 39.3131 162.641 35.9984 166.82 31.8198C170.998 27.6412 174.313 22.6804 176.575 17.2208C178.836 11.7611 180 5.90948 180 0H135L135 45Z" fill="#955726"/>
<path d="M270 450C275.909 450 281.761 448.836 287.221 446.575C292.68 444.313 297.641 440.998 301.82 436.82C305.998 432.641 309.313 427.68 311.575 422.221C313.836 416.761 315 410.909 315 405H270L270 450Z" fill="#A9ABA7"/>
<path d="M-1.96701e-06 180C5.90948 180 11.7611 178.836 17.2208 176.575C22.6804 174.313 27.6412 170.998 31.8198 166.82C35.9984 162.641 39.3131 157.68 41.5746 152.221C43.836 146.761 45 140.909 45 135H0L-1.96701e-06 180Z" fill="#BDB8AB"/>
<path d="M0 90C-1.04337e-06 101.935 4.74106 113.381 13.1802 121.82C21.6193 130.259 33.0653 135 45 135L45 90L0 90Z" fill="#BDB8AB"/>
<path d="M225 135C225 146.935 229.741 158.381 238.18 166.82C246.619 175.259 258.065 180 270 180L270 135L225 135Z" fill="#955726"/>
<path d="M90 270C90 281.935 94.7411 293.381 103.18 301.82C111.619 310.259 123.065 315 135 315L135 270L90 270Z" fill="#384131"/>
<circle cx="270" cy="315" r="43" stroke="#955726" stroke-width="4"/>
<circle cx="270" cy="315" r="36" stroke="#955726" stroke-width="4"/>
<circle cx="270" cy="315" r="28" stroke="#955726" stroke-width="4"/>
<circle cx="270" cy="315" r="20" stroke="#955726" stroke-width="4"/>
<circle cx="270" cy="315" r="13" stroke="#955726" stroke-width="4"/>
<circle cx="315" cy="135" r="45" fill="#BDB8AB"/>
<circle cx="135" cy="135" r="45" fill="#ECEEE9"/>
<circle cx="90" cy="405" r="45" fill="#E49443"/>
<path d="M90 90C90 78.0653 85.2589 66.6193 76.8198 58.1802C68.3807 49.7411 56.9347 45 45 45C33.0653 45 21.6193 49.7411 13.1802 58.1802C4.74106 66.6193 1.8021e-06 78.0653 0 90L45 90H90Z" fill="#496D6C"/>
<path d="M90 270C90 258.065 85.2589 246.619 76.8198 238.18C68.3807 229.741 56.9347 225 45 225C33.0653 225 21.6193 229.741 13.1802 238.18C4.74106 246.619 1.8021e-06 258.065 0 270L45 270H90Z" fill="#BDB8AB"/>
<path d="M360 90C360 78.0653 355.259 66.6193 346.82 58.1802C338.381 49.7411 326.935 45 315 45C303.065 45 291.619 49.7411 283.18 58.1802C274.741 66.6193 270 78.0653 270 90L315 90H360Z" fill="#F59F48"/>
<path d="M180 360C180 348.065 175.259 336.619 166.82 328.18C158.381 319.741 146.935 315 135 315C123.065 315 111.619 319.741 103.18 328.18C94.7411 336.619 90 348.065 90 360L135 360H180Z" fill="#BDB8AB"/>
<path d="M360 270C360 258.065 355.259 246.619 346.82 238.18C338.381 229.741 326.935 225 315 225C303.065 225 291.619 229.741 283.18 238.18C274.741 246.619 270 258.065 270 270L315 270H360Z" fill="#496D6C"/>
<path d="M270 450C270 438.065 265.259 426.619 256.82 418.18C248.381 409.741 236.935 405 225 405C213.065 405 201.619 409.741 193.18 418.18C184.741 426.619 180 438.065 180 450L225 450H270Z" fill="#512F15"/>
<circle cx="135" cy="225" r="45" fill="#496D6C"/>
<circle cx="45" cy="315" r="45" fill="#496D6C"/>
<path d="M180 90C185.909 90 191.761 88.836 197.221 86.5746C202.68 84.3131 207.641 80.9984 211.82 76.8198C215.998 72.6412 219.313 67.6804 221.575 62.2208C223.836 56.7611 225 50.9095 225 45C225 39.0905 223.836 33.2389 221.575 27.7792C219.313 22.3196 215.998 17.3588 211.82 13.1802C207.641 9.00156 202.68 5.68688 197.221 3.42542C191.761 1.16396 185.909 -2.58312e-07 180 0L180 45L180 90Z" fill="#ECEEE9"/>
<path d="M180 270C185.909 270 191.761 268.836 197.221 266.575C202.68 264.313 207.641 260.998 211.82 256.82C215.998 252.641 219.313 247.68 221.575 242.221C223.836 236.761 225 230.909 225 225C225 219.091 223.836 213.239 221.575 207.779C219.313 202.32 215.998 197.359 211.82 193.18C207.641 189.002 202.68 185.687 197.221 183.425C191.761 181.164 185.909 180 180 180L180 225L180 270Z" fill="#ECEEE9"/>
<path d="M180 360C185.909 360 191.761 358.836 197.221 356.575C202.68 354.313 207.641 350.998 211.82 346.82C215.998 342.641 219.313 337.68 221.575 332.221C223.836 326.761 225 320.909 225 315C225 309.091 223.836 303.239 221.575 297.779C219.313 292.32 215.998 287.359 211.82 283.18C207.641 279.002 202.68 275.687 197.221 273.425C191.761 271.164 185.909 270 180 270L180 315L180 360Z" fill="#ECEEE9"/>
<path d="M-1.96701e-06 450C5.90948 450 11.7611 448.836 17.2208 446.575C22.6804 444.313 27.6412 440.998 31.8198 436.82C35.9984 432.641 39.3131 427.68 41.5746 422.221C43.836 416.761 45 410.909 45 405C45 399.091 43.836 393.239 41.5746 387.779C39.3131 382.32 35.9984 377.359 31.8198 373.18C27.6412 369.002 22.6804 365.687 17.2208 363.425C11.7611 361.164 5.90948 360 -1.96701e-06 360L0 405L-1.96701e-06 450Z" fill="#8F6C2A"/>
<path d="M270 0C264.091 -7.04699e-08 258.239 1.16396 252.779 3.42542C247.32 5.68688 242.359 9.00156 238.18 13.1802C234.002 17.3588 230.687 22.3196 228.425 27.7793C226.164 33.2389 225 39.0905 225 45C225 50.9095 226.164 56.7611 228.425 62.2208C230.687 67.6804 234.002 72.6412 238.18 76.8198C242.359 80.9984 247.32 84.3131 252.779 86.5746C258.239 88.836 264.091 90 270 90L270 45L270 0Z" fill="#C66128"/>
<path d="M270 180C264.091 180 258.239 181.164 252.779 183.425C247.32 185.687 242.359 189.002 238.18 193.18C234.002 197.359 230.687 202.32 228.425 207.779C226.164 213.239 225 219.091 225 225C225 230.909 226.164 236.761 228.425 242.221C230.687 247.68 234.002 252.641 238.18 256.82C242.359 260.998 247.32 264.313 252.779 266.575C258.239 268.836 264.091 270 270 270L270 225L270 180Z" fill="#C66128"/>
<path d="M360 270C354.091 270 348.239 271.164 342.779 273.425C337.32 275.687 332.359 279.002 328.18 283.18C324.002 287.359 320.687 292.32 318.425 297.779C316.164 303.239 315 309.091 315 315C315 320.909 316.164 326.761 318.425 332.221C320.687 337.68 324.002 342.641 328.18 346.82C332.359 350.998 337.32 354.313 342.779 356.575C348.239 358.836 354.091 360 360 360L360 315L360 270Z" fill="#ECEEE9"/>
<path d="M180 360C174.091 360 168.239 361.164 162.779 363.425C157.32 365.687 152.359 369.002 148.18 373.18C144.002 377.359 140.687 382.32 138.425 387.779C136.164 393.239 135 399.091 135 405C135 410.909 136.164 416.761 138.425 422.221C140.687 427.68 144.002 432.641 148.18 436.82C152.359 440.998 157.32 444.313 162.779 446.575C168.239 448.836 174.091 450 180 450L180 405L180 360Z" fill="#AE5523"/>
<path d="M90 90C84.0905 90 78.2389 91.164 72.7792 93.4254C67.3196 95.6869 62.3588 99.0016 58.1802 103.18C54.0016 107.359 50.6869 112.32 48.4254 117.779C46.164 123.239 45 129.091 45 135C45 140.909 46.164 146.761 48.4254 152.221C50.6869 157.68 54.0016 162.641 58.1802 166.82C62.3588 170.998 67.3196 174.313 72.7793 176.575C78.2389 178.836 84.0905 180 90 180L90 135L90 90Z" fill="#384131"/>
<path d="M90 90C95.9095 90 101.761 88.836 107.221 86.5746C112.68 84.3131 117.641 80.9984 121.82 76.8198C125.998 72.6412 129.313 67.6804 131.575 62.2208C133.836 56.7611 135 50.9095 135 45C135 39.0905 133.836 33.2389 131.575 27.7792C129.313 22.3196 125.998 17.3588 121.82 13.1802C117.641 9.00156 112.68 5.68688 107.221 3.42542C101.761 1.16396 95.9095 -2.58312e-07 90 0L90 45L90 90Z" fill="#91A094"/>
</g>
<defs>
<clipPath id="clip0_3_2">
<rect width="360" height="450" fill="white"/>
</clipPath>
</defs>
</svg>
